<svg width="22" height="21" viewBox="0 0 22 21" fill="none" xmlns="http://www.w3.org/2000/svg">
<path d="M0.875 19.0306C0.875 20.1175 1.88281 20.9994 3.12498 20.9994H19.6249C20.867 20.9994 21.8748 20.1175 21.8748 19.0306V7.87446H0.875V19.0306ZM15.8749 10.9916C15.8749 10.7209 16.128 10.4994 16.4374 10.4994H18.3124C18.6217 10.4994 18.8749 10.7209 18.8749 10.9916V12.6322C18.8749 12.9029 18.6217 13.1244 18.3124 13.1244H16.4374C16.128 13.1244 15.8749 12.9029 15.8749 12.6322V10.9916ZM15.8749 16.2416C15.8749 15.9709 16.128 15.7494 16.4374 15.7494H18.3124C18.6217 15.7494 18.8749 15.9709 18.8749 16.2416V17.8822C18.8749 18.1529 18.6217 18.3744 18.3124 18.3744H16.4374C16.128 18.3744 15.8749 18.1529 15.8749 17.8822V16.2416ZM9.87494 10.9916C9.87494 10.7209 10.1281 10.4994 10.4374 10.4994H12.3124C12.6218 10.4994 12.8749 10.7209 12.8749 10.9916V12.6322C12.8749 12.9029 12.6218 13.1244 12.3124 13.1244H10.4374C10.1281 13.1244 9.87494 12.9029 9.87494 12.6322V10.9916ZM9.87494 16.2416C9.87494 15.9709 10.1281 15.7494 10.4374 15.7494H12.3124C12.6218 15.7494 12.8749 15.9709 12.8749 16.2416V17.8822C12.8749 18.1529 12.6218 18.3744 12.3124 18.3744H10.4374C10.1281 18.3744 9.87494 18.1529 9.87494 17.8822V16.2416ZM3.87498 10.9916C3.87498 10.7209 4.1281 10.4994 4.43747 10.4994H6.31246C6.62183 10.4994 6.87496 10.7209 6.87496 10.9916V12.6322C6.87496 12.9029 6.62183 13.1244 6.31246 13.1244H4.43747C4.1281 13.1244 3.87498 12.9029 3.87498 12.6322V10.9916ZM3.87498 16.2416C3.87498 15.9709 4.1281 15.7494 4.43747 15.7494H6.31246C6.62183 15.7494 6.87496 15.9709 6.87496 16.2416V17.8822C6.87496 18.1529 6.62183 18.3744 6.31246 18.3744H4.43747C4.1281 18.3744 3.87498 18.1529 3.87498 17.8822V16.2416ZM19.6249 2.62449H17.3749V0.655757C17.3749 0.294822 17.0374 -0.000488281 16.6249 -0.000488281H15.1249C14.7124 -0.000488281 14.3749 0.294822 14.3749 0.655757V2.62449H8.37495V0.655757C8.37495 0.294822 8.03745 -0.000488281 7.62495 -0.000488281H6.12496C5.71247 -0.000488281 5.37497 0.294822 5.37497 0.655757V2.62449H3.12498C1.88281 2.62449 0.875 3.50632 0.875 4.59323V6.56196H21.8748V4.59323C21.8748 3.50632 20.867 2.62449 19.6249 2.62449Z" fill="white"/>
</svg>
