<svg width="28" height="31" viewBox="0 0 28 31" fill="none" xmlns="http://www.w3.org/2000/svg">
<path d="M1 26.4688C1 27.8662 2.29576 29 3.89286 29H25.1071C26.7042 29 28 27.8662 28 26.4688V12.125H1V26.4688ZM20.2857 16.1328C20.2857 15.7848 20.6112 15.5 21.0089 15.5H23.4196C23.8174 15.5 24.1429 15.7848 24.1429 16.1328V18.2422C24.1429 18.5902 23.8174 18.875 23.4196 18.875H21.0089C20.6112 18.875 20.2857 18.5902 20.2857 18.2422V16.1328ZM20.2857 22.8828C20.2857 22.5348 20.6112 22.25 21.0089 22.25H23.4196C23.8174 22.25 24.1429 22.5348 24.1429 22.8828V24.9922C24.1429 25.3402 23.8174 25.625 23.4196 25.625H21.0089C20.6112 25.625 20.2857 25.3402 20.2857 24.9922V22.8828ZM12.5714 16.1328C12.5714 15.7848 12.8969 15.5 13.2946 15.5H15.7054C16.1031 15.5 16.4286 15.7848 16.4286 16.1328V18.2422C16.4286 18.5902 16.1031 18.875 15.7054 18.875H13.2946C12.8969 18.875 12.5714 18.5902 12.5714 18.2422V16.1328ZM12.5714 22.8828C12.5714 22.5348 12.8969 22.25 13.2946 22.25H15.7054C16.1031 22.25 16.4286 22.5348 16.4286 22.8828V24.9922C16.4286 25.3402 16.1031 25.625 15.7054 25.625H13.2946C12.8969 25.625 12.5714 25.3402 12.5714 24.9922V22.8828ZM4.85714 16.1328C4.85714 15.7848 5.18259 15.5 5.58036 15.5H7.99107C8.38884 15.5 8.71429 15.7848 8.71429 16.1328V18.2422C8.71429 18.5902 8.38884 18.875 7.99107 18.875H5.58036C5.18259 18.875 4.85714 18.5902 4.85714 18.2422V16.1328ZM4.85714 22.8828C4.85714 22.5348 5.18259 22.25 5.58036 22.25H7.99107C8.38884 22.25 8.71429 22.5348 8.71429 22.8828V24.9922C8.71429 25.3402 8.38884 25.625 7.99107 25.625H5.58036C5.18259 25.625 4.85714 25.3402 4.85714 24.9922V22.8828ZM25.1071 5.375H22.2143V2.84375C22.2143 2.37969 21.7804 2 21.25 2H19.3214C18.7911 2 18.3571 2.37969 18.3571 2.84375V5.375H10.6429V2.84375C10.6429 2.37969 10.2089 2 9.67857 2H7.75C7.21964 2 6.78571 2.37969 6.78571 2.84375V5.375H3.89286C2.29576 5.375 1 6.50879 1 7.90625V10.4375H28V7.90625C28 6.50879 26.7042 5.375 25.1071 5.375Z" fill="url(#paint0_linear)"/>
<defs>
<linearGradient id="paint0_linear" x1="1" y1="15.5" x2="28" y2="15.5" gradientUnits="userSpaceOnUse">
<stop stop-color="#4CB8C4"/>
<stop offset="1" stop-color="#3CD3AD"/>
</linearGradient>
</defs>
</svg>
