<svg width="36" height="36" viewBox="0 0 36 36" fill="none" xmlns="http://www.w3.org/2000/svg">
<path d="M28 -3.49691e-07C32.4183 -1.56562e-07 36 3.58172 36 8L36 28C36 32.4183 32.4183 36 28 36L8 36C3.58172 36 2.39765e-06 32.4183 2.59078e-06 28L3.46501e-06 8C3.65814e-06 3.58172 3.58173 -1.41705e-06 8 -1.22392e-06L28 -3.49691e-07Z" fill="url(#paint0_linear)"/>
<path d="M23.4211 12L22.6316 12L22.6316 22.2632L23.4211 22.2632C23.8398 22.2632 24.2414 22.0968 24.5375 21.8007C24.8336 21.5046 25 21.103 25 20.6842L25 13.5789C25 13.1602 24.8336 12.7586 24.5375 12.4625C24.2414 12.1664 23.8398 12 23.4211 12ZM10.7895 22.2632L16.3158 22.2632L15.43 24.9221C15.351 25.1594 15.3294 25.4121 15.3672 25.6594C15.4049 25.9066 15.5009 26.1414 15.6471 26.3443C15.7934 26.5472 15.9857 26.7124 16.2084 26.8264C16.431 26.9404 16.6775 26.9999 16.9276 27L17.1053 27L21.0526 22.7068L21.0526 12L12.3684 12L9.28 18.7863L9.21053 19.1053L9.21053 20.6842C9.21053 21.103 9.37688 21.5046 9.67299 21.8007C9.9691 22.0968 10.3707 22.2632 10.7895 22.2632Z" fill="white"/>
<defs>
<linearGradient id="paint0_linear" x1="18" y1="-7.86805e-07" x2="18" y2="36" gradientUnits="userSpaceOnUse">
<stop stop-color="#4CB8C4"/>
<stop offset="1" stop-color="#3CD3AD"/>
</linearGradient>
</defs>
</svg>
