<svg width="45" height="47" viewBox="0 0 45 47" fill="none" xmlns="http://www.w3.org/2000/svg">
<path d="M22.3978 0.827759C10.2347 0.827759 0.385254 11.0478 0.385254 23.6404C0.385254 36.233 10.2347 46.4531 22.3978 46.4531C34.5829 46.4531 44.4544 36.233 44.4544 23.6404C44.4544 11.0478 34.5829 0.827759 22.3978 0.827759ZM37.6678 14.5154H31.1676C30.4779 11.6899 29.4567 8.96252 28.1268 6.39405C32.1461 7.82669 35.533 10.7096 37.6678 14.5154ZM22.4198 5.48154C24.2487 8.21906 25.6809 11.2531 26.6284 14.5154H18.2112C19.1587 11.2531 20.591 8.21906 22.4198 5.48154ZM5.36507 28.203C5.01252 26.7429 4.79217 25.2145 4.79217 23.6404C4.79217 22.0663 5.01252 20.5379 5.36507 19.0779H12.8128C12.6365 20.5835 12.5043 22.0892 12.5043 23.6404C12.5043 25.1917 12.6365 26.6973 12.8128 28.203H5.36507ZM7.1719 32.7655H13.6721C14.3772 35.6171 15.3908 38.3546 16.7129 40.8868C12.6893 39.462 9.30007 36.5771 7.1719 32.7655ZM13.6721 14.5154H7.1719C9.30007 10.7038 12.6893 7.81886 16.7129 6.39405C15.3829 8.96252 14.3617 11.6899 13.6721 14.5154ZM22.4198 41.7993C20.591 39.0618 19.1587 36.0277 18.2112 32.7655H26.6284C25.6809 36.0277 24.2487 39.0618 22.4198 41.7993ZM27.5759 28.203H17.2637C17.0654 26.6973 16.9112 25.1917 16.9112 23.6404C16.9112 22.0892 17.0654 20.5607 17.2637 19.0779H27.5759C27.7742 20.5607 27.9285 22.0892 27.9285 23.6404C27.9285 25.1917 27.7742 26.6973 27.5759 28.203ZM28.1268 40.8868C29.4489 38.3546 30.4624 35.6171 31.1676 32.7655H37.6678C35.533 36.5713 32.1461 39.4542 28.1268 40.8868ZM32.0269 28.203C32.2032 26.6973 32.3354 25.1917 32.3354 23.6404C32.3354 22.0892 32.2032 20.5835 32.0269 19.0779H39.4746C39.8271 20.5379 40.0475 22.0663 40.0475 23.6404C40.0475 25.2145 39.8271 26.7429 39.4746 28.203H32.0269Z" fill="url(#paint0_linear)"/>
<defs>
<linearGradient id="paint0_linear" x1="0.385254" y1="23.6404" x2="44.4544" y2="23.6404" gradientUnits="userSpaceOnUse">
<stop stop-color="#4CB8C4"/>
<stop offset="1" stop-color="#3CD3AD"/>
</linearGradient>
</defs>
</svg>
