<svg width="22" height="21" viewBox="0 0 22 21" fill="none" xmlns="http://www.w3.org/2000/svg">
<path d="M11.3645 -0.000732422C5.56848 -0.000732422 0.875 4.70325 0.875 10.4992C0.875 16.2952 5.56848 20.9992 11.3645 20.9992C17.1709 20.9992 21.8749 16.2952 21.8749 10.4992C21.8749 4.70325 17.1709 -0.000732422 11.3645 -0.000732422ZM18.6409 6.29924H15.5434C15.2148 4.99878 14.7282 3.74344 14.0944 2.56126C16.0098 3.22066 17.6237 4.54756 18.6409 6.29924ZM11.375 2.14126C12.2464 3.40125 12.9289 4.79775 13.3804 6.29924H9.36946C9.82096 4.79775 10.5035 3.40125 11.375 2.14126ZM3.24799 12.5992C3.07999 11.9272 2.97499 11.2237 2.97499 10.4992C2.97499 9.77472 3.07999 9.07123 3.24799 8.39923H6.79697C6.71297 9.09223 6.64997 9.78522 6.64997 10.4992C6.64997 11.2132 6.71297 11.9062 6.79697 12.5992H3.24799ZM4.10899 14.6992H7.20647C7.54247 16.0117 8.02547 17.2717 8.65547 18.4372C6.73814 17.7814 5.12311 16.4536 4.10899 14.6992ZM7.20647 6.29924H4.10899C5.12311 4.54488 6.73814 3.21705 8.65547 2.56126C8.02172 3.74344 7.5351 4.99878 7.20647 6.29924ZM11.375 18.8572C10.5035 17.5972 9.82096 16.2007 9.36946 14.6992H13.3804C12.9289 16.2007 12.2464 17.5972 11.375 18.8572ZM13.8319 12.5992H8.91796C8.82346 11.9062 8.74996 11.2132 8.74996 10.4992C8.74996 9.78522 8.82346 9.08173 8.91796 8.39923H13.8319C13.9264 9.08173 13.9999 9.78522 13.9999 10.4992C13.9999 11.2132 13.9264 11.9062 13.8319 12.5992ZM14.0944 18.4372C14.7244 17.2717 15.2074 16.0117 15.5434 14.6992H18.6409C17.6237 16.4509 16.0098 17.7778 14.0944 18.4372ZM15.9529 12.5992C16.0369 11.9062 16.0999 11.2132 16.0999 10.4992C16.0999 9.78522 16.0369 9.09223 15.9529 8.39923H19.5019C19.6699 9.07123 19.7749 9.77472 19.7749 10.4992C19.7749 11.2237 19.6699 11.9272 19.5019 12.5992H15.9529Z" fill="white"/>
</svg>
