<svg width="45" height="42" viewBox="0 0 45 42" fill="none" xmlns="http://www.w3.org/2000/svg">
<path d="M38.9458 32.9916V22.1284C38.9458 13.1296 31.5463 5.83369 22.4198 5.83369C13.2934 5.83369 5.8939 13.1296 5.8939 22.1284V32.9916C5.48817 36.8627 0.473466 35.8503 0.385254 32.9916V22.1284C0.385254 10.1287 10.2512 0.4021 22.4198 0.4021C34.5884 0.4021 44.4544 10.1287 44.4544 22.1284V32.9916C44.0487 36.8627 39.034 35.8503 38.9458 32.9916ZM10.0254 24.8442H12.7797C13.5399 24.8442 14.1569 25.4512 14.1569 26.2021V39.7811C14.1569 40.532 13.5399 41.139 12.7797 41.139H10.0254C9.26519 41.139 8.64822 40.532 8.64822 39.7811V26.2021C8.64822 25.4512 9.26519 24.8442 10.0254 24.8442ZM32.06 24.8442H34.8143C35.5758 24.8442 36.1914 25.4512 36.1914 26.2021V39.7811C36.1914 40.532 35.5758 41.139 34.8143 41.139H32.06C31.2984 41.139 30.6828 40.532 30.6828 39.7811V26.2021C30.6828 25.4512 31.2984 24.8442 32.06 24.8442Z" fill="url(#paint0_linear)"/>
<defs>
<linearGradient id="paint0_linear" x1="0.385254" y1="20.7705" x2="44.4544" y2="20.7705" gradientUnits="userSpaceOnUse">
<stop stop-color="#4CB8C4"/>
<stop offset="1" stop-color="#3CD3AD"/>
</linearGradient>
</defs>
</svg>
