<svg width="21" height="19" viewBox="0 0 21 19" fill="none" xmlns="http://www.w3.org/2000/svg">
<path d="M17.875 14.9998V9.99976C17.875 5.85787 14.5169 2.49976 10.375 2.49976C6.23312 2.49976 2.875 5.85787 2.875 9.99976V14.9998C2.69087 16.7815 0.415033 16.3155 0.375 14.9998V9.99976C0.375 4.47662 4.8525 -0.000244141 10.375 -0.000244141C15.8975 -0.000244141 20.375 4.47662 20.375 9.99976V14.9998C20.1909 16.7815 17.915 16.3155 17.875 14.9998ZM4.75 11.2498H6C6.345 11.2498 6.625 11.5291 6.625 11.8748V18.1248C6.625 18.4704 6.345 18.7498 6 18.7498H4.75C4.405 18.7498 4.125 18.4704 4.125 18.1248V11.8748C4.125 11.5291 4.405 11.2498 4.75 11.2498ZM14.75 11.2498H16C16.3456 11.2498 16.625 11.5291 16.625 11.8748V18.1248C16.625 18.4704 16.3456 18.7498 16 18.7498H14.75C14.4044 18.7498 14.125 18.4704 14.125 18.1248V11.8748C14.125 11.5291 14.4044 11.2498 14.75 11.2498Z" fill="white"/>
</svg>
