<svg width="28" height="31" viewBox="0 0 28 31" fill="none" xmlns="http://www.w3.org/2000/svg">
<path d="M24.625 23V16.3333C24.625 10.8108 20.0915 6.33333 14.5 6.33333C8.90846 6.33333 4.375 10.8108 4.375 16.3333V23C4.12642 25.3757 1.05404 24.7544 1 23V16.3333C1 8.96916 7.04463 3 14.5 3C21.9554 3 28 8.96916 28 16.3333V23C27.7514 25.3757 24.679 24.7544 24.625 23ZM6.90625 18H8.59375C9.0595 18 9.4375 18.3725 9.4375 18.8333V27.1667C9.4375 27.6275 9.0595 28 8.59375 28H6.90625C6.4405 28 6.0625 27.6275 6.0625 27.1667V18.8333C6.0625 18.3725 6.4405 18 6.90625 18ZM20.4062 18H22.0938C22.5603 18 22.9375 18.3725 22.9375 18.8333V27.1667C22.9375 27.6275 22.5603 28 22.0938 28H20.4062C19.9397 28 19.5625 27.6275 19.5625 27.1667V18.8333C19.5625 18.3725 19.9397 18 20.4062 18Z" fill="url(#paint0_linear)"/>
<defs>
<linearGradient id="paint0_linear" x1="1" y1="15.5" x2="28" y2="15.5" gradientUnits="userSpaceOnUse">
<stop stop-color="#4CB8C4"/>
<stop offset="1" stop-color="#3CD3AD"/>
</linearGradient>
</defs>
</svg>
