<svg width="25" height="24" viewBox="0 0 25 24" fill="none" xmlns="http://www.w3.org/2000/svg">
<path d="M12.8244 7.99813C10.6209 7.99813 8.82277 9.79631 8.82277 11.9998C8.82277 14.2032 10.6209 16.0014 12.8244 16.0014C15.0278 16.0014 16.826 14.2032 16.826 11.9998C16.826 9.79631 15.0278 7.99813 12.8244 7.99813ZM24.8262 11.9998C24.8262 10.3427 24.8413 8.70059 24.7482 7.04651C24.6551 5.12525 24.2168 3.42013 22.8119 2.01521C21.404 0.60729 19.7019 0.172005 17.7806 0.078944C16.1235 -0.014117 14.4815 0.000892917 12.8274 0.000892917C11.1703 0.000892917 9.52823 -0.014117 7.87414 0.078944C5.95289 0.172005 4.24777 0.610292 2.84285 2.01521C1.43493 3.42313 0.999642 5.12525 0.906581 7.04651C0.81352 8.70359 0.82853 10.3457 0.82853 11.9998C0.82853 13.6538 0.81352 15.2989 0.906581 16.953C0.999642 18.8743 1.43793 20.5794 2.84285 21.9843C4.25077 23.3922 5.95289 23.8275 7.87414 23.9206C9.53123 24.0136 11.1733 23.9986 12.8274 23.9986C14.4845 23.9986 16.1265 24.0136 17.7806 23.9206C19.7019 23.8275 21.407 23.3892 22.8119 21.9843C24.2199 20.5764 24.6551 18.8743 24.7482 16.953C24.8443 15.2989 24.8262 13.6568 24.8262 11.9998ZM12.8244 18.1568C9.41715 18.1568 6.66735 15.407 6.66735 11.9998C6.66735 8.59252 9.41715 5.84272 12.8244 5.84272C16.2316 5.84272 18.9814 8.59252 18.9814 11.9998C18.9814 15.407 16.2316 18.1568 12.8244 18.1568ZM19.2336 7.0285C18.4381 7.0285 17.7956 6.38608 17.7956 5.59055C17.7956 4.79503 18.4381 4.15261 19.2336 4.15261C20.0291 4.15261 20.6715 4.79503 20.6715 5.59055C20.6718 5.77945 20.6347 5.96655 20.5626 6.14111C20.4904 6.31568 20.3845 6.47429 20.2509 6.60786C20.1173 6.74143 19.9587 6.84734 19.7841 6.91952C19.6096 6.9917 19.4225 7.02873 19.2336 7.0285Z" fill="url(#paint0_linear)"/>
<defs>
<linearGradient id="paint0_linear" x1="0.827637" y1="11.9998" x2="24.8276" y2="11.9998" gradientUnits="userSpaceOnUse">
<stop stop-color="#4CB8C4"/>
<stop offset="1" stop-color="#3CD3AD"/>
</linearGradient>
</defs>
</svg>
