<svg width="36" height="36" viewBox="0 0 36 36" fill="none" xmlns="http://www.w3.org/2000/svg">
<path d="M28 -3.49691e-07C32.4183 -1.56562e-07 36 3.58172 36 8L36 28C36 32.4183 32.4183 36 28 36L8 36C3.58172 36 2.39765e-06 32.4183 2.59078e-06 28L3.46501e-06 8C3.65814e-06 3.58172 3.58173 -1.41705e-06 8 -1.22392e-06L28 -3.49691e-07Z" fill="url(#paint0_linear)"/>
<path d="M12.5789 25H13.3684L13.3684 14.7368H12.5789C12.1602 14.7368 11.7586 14.9032 11.4625 15.1993C11.1664 15.4954 11 15.897 11 16.3158L11 23.4211C11 23.8398 11.1664 24.2414 11.4625 24.5375C11.7586 24.8336 12.1602 25 12.5789 25ZM25.2105 14.7368L19.6842 14.7368L20.57 12.0779C20.649 11.8406 20.6706 11.5879 20.6328 11.3406C20.5951 11.0934 20.4991 10.8586 20.3529 10.6557C20.2066 10.4528 20.0143 10.2876 19.7916 10.1736C19.569 10.0595 19.3225 10.0001 19.0724 10H18.8947L14.9474 14.2932L14.9474 25H23.6316L26.72 18.2137L26.7895 17.8947V16.3158C26.7895 15.897 26.6231 15.4954 26.327 15.1993C26.0309 14.9032 25.6293 14.7368 25.2105 14.7368Z" fill="white"/>
<defs>
<linearGradient id="paint0_linear" x1="18" y1="-7.86805e-07" x2="18" y2="36" gradientUnits="userSpaceOnUse">
<stop stop-color="#4CB8C4"/>
<stop offset="1" stop-color="#3CD3AD"/>
</linearGradient>
</defs>
</svg>
