<svg width="45" height="46" viewBox="0 0 45 46" fill="none" xmlns="http://www.w3.org/2000/svg">
<path d="M40.7343 8.70093H38.378C38.3757 8.70093 38.3734 8.70186 38.3717 8.70353C38.3701 8.7052 38.3691 8.70746 38.3691 8.70982V38.7226C38.3691 39.5607 38.7026 40.3645 39.2963 40.9571C39.8899 41.5498 40.6951 41.8827 41.5346 41.8827C42.3741 41.8827 43.1792 41.5498 43.7729 40.9571C44.3665 40.3645 44.7 39.5607 44.7 38.7226V12.66C44.7 11.61 44.2822 10.603 43.5385 9.86052C42.7948 9.11805 41.7861 8.70093 40.7343 8.70093Z" fill="url(#paint0_linear)"/>
<path d="M35.2051 38.7223V4.75039C35.2051 4.23164 35.1027 3.71797 34.9039 3.23871C34.7051 2.75944 34.4136 2.32398 34.0462 1.95716C33.6787 1.59035 33.2426 1.29938 32.7625 1.10086C32.2824 0.902346 31.7679 0.800171 31.2483 0.800171H4.34205C3.29265 0.800171 2.28622 1.21635 1.54417 1.95716C0.80213 2.69797 0.385254 3.70273 0.385254 4.75039V39.5123C0.385254 40.9791 0.96888 42.3857 2.00774 43.4229C3.0466 44.46 4.4556 45.0426 5.92477 45.0426H39.8395C39.8545 45.0428 39.8693 45.0399 39.8832 45.0343C39.897 45.0286 39.9096 45.0202 39.9202 45.0097C39.9308 44.9991 39.9392 44.9865 39.9449 44.9727C39.9505 44.9588 39.9534 44.944 39.9533 44.9291C39.9532 44.9042 39.9449 44.8801 39.9297 44.8605C39.9145 44.8408 39.8932 44.8268 39.8692 44.8204C38.5303 44.4538 37.349 43.6586 36.5064 42.557C35.6639 41.4555 35.2067 40.1083 35.2051 38.7223ZM6.71613 10.2807C6.71613 9.86163 6.88288 9.45973 7.1797 9.16341C7.47652 8.86709 7.87909 8.70061 8.29885 8.70061H14.6297C15.0495 8.70061 15.4521 8.86709 15.7489 9.16341C16.0457 9.45973 16.2125 9.86163 16.2125 10.2807V16.6011C16.2125 17.0201 16.0457 17.422 15.7489 17.7183C15.4521 18.0147 15.0495 18.1811 14.6297 18.1811H8.29885C7.87909 18.1811 7.47652 18.0147 7.1797 17.7183C6.88288 17.422 6.71613 17.0201 6.71613 16.6011V10.2807ZM27.2915 37.1422H8.34337C7.49167 37.1422 6.76065 36.4884 6.71811 35.6381C6.7078 35.4245 6.74105 35.211 6.81583 35.0106C6.89062 34.8101 7.00538 34.6269 7.15318 34.4721C7.30098 34.3172 7.47873 34.194 7.67566 34.1097C7.87259 34.0255 8.08461 33.982 8.29885 33.982H27.247C28.0987 33.982 28.8297 34.6358 28.8722 35.4861C28.8825 35.6997 28.8493 35.9132 28.7745 36.1137C28.6997 36.3141 28.585 36.4973 28.4372 36.6521C28.2894 36.807 28.1116 36.9303 27.9147 37.0145C27.7178 37.0987 27.5057 37.1422 27.2915 37.1422ZM27.2915 30.8218H8.34337C7.49167 30.8218 6.76065 30.1681 6.71811 29.3178C6.7078 29.1042 6.74105 28.8906 6.81583 28.6902C6.89062 28.4898 7.00538 28.3066 7.15318 28.1517C7.30098 27.9969 7.47873 27.8736 7.67566 27.7894C7.87259 27.7051 8.08461 27.6617 8.29885 27.6617H27.247C28.0987 27.6617 28.8297 28.3154 28.8722 29.1657C28.8825 29.3794 28.8493 29.5929 28.7745 29.7933C28.6997 29.9937 28.585 30.1769 28.4372 30.3318C28.2894 30.4866 28.1116 30.6099 27.9147 30.6941C27.7178 30.7784 27.5057 30.8218 27.2915 30.8218ZM27.2915 24.5015H8.34337C7.49167 24.5015 6.76065 23.8477 6.71811 22.9974C6.7078 22.7838 6.74105 22.5703 6.81583 22.3699C6.89062 22.1694 7.00538 21.9862 7.15318 21.8314C7.30098 21.6765 7.47873 21.5533 7.67566 21.469C7.87259 21.3848 8.08461 21.3413 8.29885 21.3413H27.247C28.0987 21.3413 28.8297 21.9951 28.8722 22.8454C28.8825 23.059 28.8493 23.2725 28.7745 23.4729C28.6997 23.6734 28.585 23.8566 28.4372 24.0114C28.2894 24.1663 28.1116 24.2896 27.9147 24.3738C27.7178 24.458 27.5057 24.5015 27.2915 24.5015ZM27.2915 18.1811H21.0051C20.1534 18.1811 19.4224 17.5274 19.3799 16.6771C19.3696 16.4635 19.4028 16.2499 19.4776 16.0495C19.5524 15.8491 19.6671 15.6659 19.8149 15.511C19.9627 15.3562 20.1405 15.2329 20.3374 15.1487C20.5344 15.0644 20.7464 15.021 20.9606 15.021H27.247C28.0987 15.021 28.8297 15.6747 28.8722 16.525C28.8825 16.7387 28.8493 16.9522 28.7745 17.1526C28.6997 17.353 28.585 17.5362 28.4372 17.6911C28.2894 17.8459 28.1116 17.9692 27.9147 18.0534C27.7178 18.1377 27.5057 18.1811 27.2915 18.1811ZM27.2915 11.8608H21.0051C20.1534 11.8608 19.4224 11.207 19.3799 10.3567C19.3696 10.1431 19.4028 9.92959 19.4776 9.72915C19.5524 9.52872 19.6671 9.34552 19.8149 9.19068C19.9627 9.03583 20.1405 8.91255 20.3374 8.82831C20.5344 8.74408 20.7464 8.70063 20.9606 8.70061H27.247C28.0987 8.70061 28.8297 9.35437 28.8722 10.2047C28.8825 10.4183 28.8493 10.6318 28.7745 10.8322C28.6997 11.0327 28.585 11.2159 28.4372 11.3707C28.2894 11.5256 28.1116 11.6488 27.9147 11.7331C27.7178 11.8173 27.5057 11.8608 27.2915 11.8608Z" fill="#3CD3AD"/>
<defs>
<linearGradient id="paint0_linear" x1="38.3691" y1="25.2918" x2="44.7" y2="25.2918" gradientUnits="userSpaceOnUse">
<stop stop-color="#4CB8C4"/>
<stop offset="1" stop-color="#3CD3AD"/>
</linearGradient>
</defs>
</svg>
