<svg width="22" height="21" viewBox="0 0 22 21" fill="none" xmlns="http://www.w3.org/2000/svg">
<path d="M19.9952 3.74951H18.8786C18.8775 3.74951 18.8764 3.74996 18.8756 3.75075C18.8748 3.75154 18.8744 3.75261 18.8744 3.75373V17.9994C18.8744 18.3972 19.0324 18.7787 19.3137 19.06C19.595 19.3413 19.9766 19.4994 20.3744 19.4994C20.7722 19.4994 21.1537 19.3413 21.435 19.06C21.7163 18.7787 21.8744 18.3972 21.8744 17.9994V5.62871C21.8744 5.13032 21.6764 4.65234 21.324 4.29992C20.9715 3.9475 20.4936 3.74951 19.9952 3.74951Z" fill="white"/>
<path d="M17.3749 17.9993V1.87438C17.3749 1.62815 17.3264 1.38433 17.2322 1.15685C17.1379 0.929366 16.9998 0.722669 16.8257 0.54856C16.6516 0.374452 16.4449 0.236341 16.2174 0.142115C15.9899 0.0478876 15.7461 -0.000610352 15.4999 -0.000610352H2.74999C2.25271 -0.000610352 1.7758 0.196932 1.42417 0.54856C1.07254 0.900189 0.875 1.3771 0.875 1.87438V18.3743C0.875 19.0704 1.15156 19.7381 1.64384 20.2304C2.13612 20.7227 2.80379 20.9992 3.49998 20.9992H19.571C19.5781 20.9993 19.5851 20.9979 19.5917 20.9953C19.5982 20.9926 19.6042 20.9886 19.6092 20.9836C19.6142 20.9786 19.6182 20.9726 19.6209 20.966C19.6236 20.9595 19.6249 20.9524 19.6249 20.9453C19.6248 20.9335 19.6209 20.9221 19.6137 20.9128C19.6065 20.9035 19.5964 20.8968 19.585 20.8938C18.9506 20.7197 18.3908 20.3423 17.9915 19.8194C17.5923 19.2966 17.3757 18.6571 17.3749 17.9993ZM3.87498 4.49936C3.87498 4.30045 3.95399 4.10968 4.09465 3.96903C4.2353 3.82838 4.42606 3.74936 4.62497 3.74936H7.62495C7.82386 3.74936 8.01463 3.82838 8.15528 3.96903C8.29593 4.10968 8.37494 4.30045 8.37494 4.49936V7.49934C8.37494 7.69825 8.29593 7.88901 8.15528 8.02966C8.01463 8.17031 7.82386 8.24933 7.62495 8.24933H4.62497C4.42606 8.24933 4.2353 8.17031 4.09465 8.02966C3.95399 7.88901 3.87498 7.69825 3.87498 7.49934V4.49936ZM13.6249 17.2493H4.64607C4.24248 17.2493 3.89607 16.939 3.87592 16.5354C3.87103 16.434 3.88678 16.3326 3.92222 16.2375C3.95766 16.1423 4.01204 16.0554 4.08208 15.9819C4.15212 15.9084 4.23635 15.8499 4.32966 15.8099C4.42298 15.7699 4.52345 15.7493 4.62497 15.7493H13.6038C14.0074 15.7493 14.3538 16.0596 14.374 16.4632C14.3788 16.5646 14.3631 16.6659 14.3277 16.7611C14.2922 16.8562 14.2378 16.9432 14.1678 17.0167C14.0978 17.0902 14.0135 17.1487 13.9202 17.1887C13.8269 17.2286 13.7264 17.2493 13.6249 17.2493ZM13.6249 14.2493H4.64607C4.24248 14.2493 3.89607 13.939 3.87592 13.5354C3.87103 13.434 3.88678 13.3326 3.92222 13.2375C3.95766 13.1424 4.01204 13.0554 4.08208 12.9819C4.15212 12.9084 4.23635 12.8499 4.32966 12.8099C4.42298 12.7699 4.52345 12.7493 4.62497 12.7493H13.6038C14.0074 12.7493 14.3538 13.0596 14.374 13.4632C14.3788 13.5646 14.3631 13.6659 14.3277 13.7611C14.2922 13.8562 14.2378 13.9432 14.1678 14.0167C14.0978 14.0902 14.0135 14.1487 13.9202 14.1887C13.8269 14.2287 13.7264 14.2493 13.6249 14.2493ZM13.6249 11.2493H4.64607C4.24248 11.2493 3.89607 10.939 3.87592 10.5354C3.87103 10.434 3.88678 10.3327 3.92222 10.2375C3.95766 10.1424 4.01204 10.0554 4.08208 9.98193C4.15212 9.90843 4.23635 9.84992 4.32966 9.80993C4.42298 9.76995 4.52345 9.74933 4.62497 9.74932H13.6038C14.0074 9.74932 14.3538 10.0596 14.374 10.4632C14.3788 10.5646 14.3631 10.666 14.3277 10.7611C14.2922 10.8562 14.2378 10.9432 14.1678 11.0167C14.0978 11.0902 14.0135 11.1487 13.9202 11.1887C13.8269 11.2287 13.7264 11.2493 13.6249 11.2493ZM13.6249 8.24933H10.646C10.2424 8.24933 9.89603 7.93902 9.87587 7.53543C9.87099 7.43402 9.88674 7.33268 9.92218 7.23754C9.95761 7.1424 10.012 7.05545 10.082 6.98195C10.1521 6.90845 10.2363 6.84994 10.3296 6.80996C10.4229 6.76997 10.5234 6.74935 10.6249 6.74934H13.6038C14.0074 6.74934 14.3538 7.05965 14.374 7.46324C14.3788 7.56465 14.3631 7.66599 14.3277 7.76113C14.2922 7.85627 14.2378 7.94322 14.1678 8.01672C14.0978 8.09022 14.0135 8.14873 13.9202 8.18871C13.8269 8.2287 13.7264 8.24932 13.6249 8.24933ZM13.6249 5.24935H10.646C10.2424 5.24935 9.89603 4.93904 9.87587 4.53545C9.87099 4.43404 9.88674 4.3327 9.92218 4.23756C9.95761 4.14243 10.012 4.05547 10.082 3.98197C10.1521 3.90848 10.2363 3.84996 10.3296 3.80998C10.4229 3.76999 10.5234 3.74937 10.6249 3.74936H13.6038C14.0074 3.74936 14.3538 4.05967 14.374 4.46326C14.3788 4.56467 14.3631 4.66601 14.3277 4.76115C14.2922 4.85629 14.2378 4.94324 14.1678 5.01674C14.0978 5.09024 14.0135 5.14875 13.9202 5.18874C13.8269 5.22872 13.7264 5.24934 13.6249 5.24935Z" fill="white"/>
</svg>
