<svg width="45" height="51" viewBox="0 0 45 51" fill="none" xmlns="http://www.w3.org/2000/svg">
<path d="M26.6919 48.2289C26.186 50.1045 24.2749 50.5412 22.4198 50.5412C20.5649 50.5412 18.6537 50.1045 18.1479 48.2289C17.3958 45.4241 16.1242 38.396 16.1242 35.1256C16.1242 31.6572 19.1876 30.8093 22.4198 30.8093C25.652 30.8093 28.7154 31.6572 28.7154 35.1256C28.7154 38.3764 27.4493 45.4039 26.6919 48.2289ZM15.816 28.4961C13.9772 26.6898 12.8691 24.138 12.9846 21.3335C13.1867 16.4278 17.1549 12.4585 22.0467 12.2686C27.4231 12.0598 31.8632 16.3859 31.8632 21.7326C31.8632 24.3793 30.7749 26.7757 29.0237 28.4959C28.7606 28.7544 28.7875 29.1852 29.0855 29.4023C30.0015 30.0697 30.7046 30.916 31.1742 31.9046C31.3455 32.2651 31.8133 32.3644 32.1037 32.0912C34.9393 29.4231 36.6831 25.601 36.5806 21.3802C36.3981 13.8617 30.3248 7.74463 22.8293 7.53142C14.8326 7.30391 8.25474 13.7624 8.25474 21.7326C8.25474 25.8133 9.97934 29.4971 12.7354 32.0908C13.0259 32.3642 13.494 32.2654 13.6653 31.9046C14.1349 30.9159 14.8382 30.0697 15.7542 29.4023C16.0521 29.1853 16.0792 28.7545 15.816 28.4961ZM22.4198 0.0274658C10.2422 0.0274658 0.385254 9.91169 0.385254 22.1272C0.385254 31.0058 5.55964 38.4699 12.754 41.9981C13.1803 42.207 13.6656 41.8458 13.5936 41.3755C13.3593 39.8451 13.1665 38.3224 13.0618 37.0011C13.0475 36.8199 12.9488 36.6571 12.7984 36.5559C8.13572 33.4179 5.07016 28.0696 5.10724 22.0187C5.16548 12.524 12.9069 4.78799 22.3738 4.76323C31.9412 4.73817 39.7327 12.5372 39.7327 22.1272C39.7327 28.2374 36.5694 33.6201 31.7993 36.7157C31.701 38.1006 31.4974 39.7335 31.2461 41.3754C31.174 41.8458 31.6595 42.207 32.0856 41.998C39.2632 38.4778 44.4544 31.0251 44.4544 22.1272C44.4544 9.91366 34.5993 0.0274658 22.4198 0.0274658ZM22.4198 15.813C18.9429 15.813 16.1242 18.64 16.1242 22.1272C16.1242 25.6145 18.9429 28.4415 22.4198 28.4415C25.8968 28.4415 28.7154 25.6145 28.7154 22.1272C28.7154 18.64 25.8968 15.813 22.4198 15.813Z" fill="url(#paint0_linear)"/>
<defs>
<linearGradient id="paint0_linear" x1="0.385254" y1="25.2843" x2="44.4544" y2="25.2843" gradientUnits="userSpaceOnUse">
<stop stop-color="#4CB8C4"/>
<stop offset="1" stop-color="#3CD3AD"/>
</linearGradient>
</defs>
</svg>
