<svg width="28" height="31" viewBox="0 0 28 31" fill="none" xmlns="http://www.w3.org/2000/svg">
<path d="M17.1174 29.581C16.8074 30.732 15.6365 31 14.5 31C13.3635 31 12.1926 30.732 11.8827 29.581C11.4219 27.8597 10.6429 23.5466 10.6429 21.5396C10.6429 19.411 12.5197 18.8906 14.5 18.8906C16.4803 18.8906 18.3571 19.411 18.3571 21.5396C18.3571 23.5345 17.5814 27.8473 17.1174 29.581ZM10.454 17.471C9.32745 16.3626 8.64853 14.7965 8.71929 13.0754C8.84308 10.0648 11.2743 7.62885 14.2714 7.51229C17.5653 7.38418 20.2857 10.0391 20.2857 13.3203C20.2857 14.9446 19.6189 16.4152 18.546 17.4709C18.3848 17.6296 18.4013 17.8939 18.5839 18.0272C19.1451 18.4368 19.5759 18.9561 19.8636 19.5628C19.9685 19.7841 20.2552 19.845 20.4331 19.6773C22.1704 18.0399 23.2387 15.6944 23.1759 13.104C23.0641 8.49 19.3432 4.73598 14.7509 4.60513C9.85148 4.46551 5.82143 8.42903 5.82143 13.3203C5.82143 15.8246 6.87805 18.0854 8.56663 19.6771C8.7446 19.8448 9.03136 19.7842 9.13634 19.5628C9.42406 18.9561 9.85492 18.4368 10.4161 18.0272C10.5987 17.894 10.6153 17.6296 10.454 17.471ZM14.5 0C7.03908 0 1 6.06589 1 13.5625C1 19.0112 4.17021 23.5919 8.57802 25.7571C8.83916 25.8854 9.13652 25.6636 9.09241 25.3751C8.94885 24.4359 8.83072 23.5014 8.7666 22.6905C8.7578 22.5793 8.69735 22.4794 8.6052 22.4173C5.7485 20.4915 3.87032 17.2093 3.89304 13.4959C3.92872 7.66905 8.67168 2.92151 14.4718 2.90631C20.3335 2.89093 25.1071 7.67716 25.1071 13.5625C25.1071 17.3123 23.1691 20.6156 20.2465 22.5154C20.1863 23.3653 20.0616 24.3674 19.9076 25.375C19.8635 25.6636 20.1609 25.8854 20.422 25.7571C24.8195 23.5968 28 19.023 28 13.5625C28 6.0671 21.9621 0 14.5 0ZM14.5 9.6875C12.3698 9.6875 10.6429 11.4224 10.6429 13.5625C10.6429 15.7026 12.3698 17.4375 14.5 17.4375C16.6302 17.4375 18.3571 15.7026 18.3571 13.5625C18.3571 11.4224 16.6302 9.6875 14.5 9.6875Z" fill="url(#paint0_linear)"/>
<defs>
<linearGradient id="paint0_linear" x1="1" y1="15.5" x2="28" y2="15.5" gradientUnits="userSpaceOnUse">
<stop stop-color="#4CB8C4"/>
<stop offset="1" stop-color="#3CD3AD"/>
</linearGradient>
</defs>
</svg>
