<svg width="22" height="24" viewBox="0 0 22 24" fill="none" xmlns="http://www.w3.org/2000/svg">
<path d="M12.9106 22.9009C12.6696 23.7919 11.7589 23.9995 10.8749 23.9995C9.99101 23.9995 9.08028 23.7919 8.83925 22.9009C8.4809 21.5683 7.87495 18.2291 7.87495 16.6753C7.87495 15.0274 9.33472 14.6245 10.8749 14.6245C12.4151 14.6245 13.8749 15.0274 13.8749 16.6753C13.8749 18.2198 13.2716 21.5586 12.9106 22.9009ZM7.72809 13.5255C6.85186 12.6673 6.32382 11.4549 6.37885 10.1225C6.47513 7.79166 8.3661 5.90579 10.6971 5.81556C13.2591 5.71637 15.3749 7.77178 15.3749 10.3121C15.3749 11.5696 14.8563 12.7081 14.0218 13.5254C13.8964 13.6482 13.9093 13.8529 14.0512 13.956C14.4877 14.2732 14.8228 14.6752 15.0466 15.1449C15.1282 15.3162 15.3511 15.3634 15.4895 15.2336C16.8407 13.9659 17.6717 12.15 17.6228 10.1446C17.5359 6.57249 14.6418 3.66617 11.0701 3.56487C7.25943 3.45678 4.12497 6.52529 4.12497 10.3121C4.12497 12.2508 4.94678 14.0011 6.26011 15.2334C6.39854 15.3633 6.62156 15.3163 6.70322 15.1449C6.927 14.6752 7.26211 14.2732 7.6986 13.956C7.84059 13.8529 7.85348 13.6483 7.72809 13.5255ZM10.8749 -0.000366211C5.07203 -0.000366211 0.375 4.69577 0.375 10.4996C0.375 14.7179 2.8407 18.2642 6.26897 19.9405C6.47208 20.0398 6.70336 19.8681 6.66905 19.6447C6.55739 18.9176 6.46552 18.1941 6.41564 17.5663C6.4088 17.4803 6.36179 17.4029 6.29011 17.3548C4.06825 15.8639 2.60745 13.3229 2.62512 10.448C2.65287 5.93692 6.34182 2.26143 10.853 2.24966C15.4121 2.23776 19.1249 5.9432 19.1249 10.4996C19.1249 13.4026 17.6175 15.96 15.3444 17.4308C15.2976 18.0888 15.2006 18.8646 15.0808 19.6447C15.0465 19.8681 15.2778 20.0398 15.4809 19.9404C18.9011 18.268 21.3748 14.727 21.3748 10.4996C21.3748 4.69671 16.6787 -0.000366211 10.8749 -0.000366211ZM10.8749 7.49958C9.21809 7.49958 7.87495 8.84273 7.87495 10.4996C7.87495 12.1564 9.21809 13.4995 10.8749 13.4995C12.5318 13.4995 13.8749 12.1564 13.8749 10.4996C13.8749 8.84273 12.5318 7.49958 10.8749 7.49958Z" fill="white"/>
</svg>
