<svg width="64" height="64" viewBox="0 0 64 64" fill="none" xmlns="http://www.w3.org/2000/svg">
<rect x="64" width="64" height="64" rx="16" transform="rotate(90 64 0)" fill="url(#paint0_linear)"/>
<path d="M42.9967 30.3643L22.5845 20.1684C22.3092 20.041 22.0063 19.9844 21.7034 20.0037C21.4005 20.0231 21.1073 20.1178 20.8504 20.2793C20.5936 20.4407 20.3812 20.6638 20.2327 20.9282C20.0842 21.1926 20.0042 21.4899 20.0001 21.7931V42.176C19.9975 42.4872 20.0753 42.7938 20.226 43.0661C20.3767 43.3385 20.5952 43.5674 20.8604 43.7308C21.1255 43.8941 21.4284 43.9864 21.7397 43.9986C22.0509 44.0108 22.3601 43.9427 22.6373 43.8006L42.9967 33.6048C43.2983 33.4536 43.5518 33.2215 43.729 32.9346C43.9062 32.6477 44 32.3173 44 31.9801C44 31.643 43.9062 31.3126 43.729 31.0257C43.5518 30.7388 43.2983 30.5067 42.9967 30.3555V30.3643Z" fill="white"/>
<defs>
<linearGradient id="paint0_linear" x1="64" y1="32" x2="128" y2="32" gradientUnits="userSpaceOnUse">
<stop stop-color="#4CB8C4"/>
<stop offset="1" stop-color="#3CD3AD"/>
</linearGradient>
</defs>
</svg>
