<svg width="48" height="48" viewBox="0 0 48 48" fill="none" xmlns="http://www.w3.org/2000/svg">
<rect x="48" width="48" height="48" rx="12" transform="rotate(90 48 0)" fill="url(#paint0_linear)"/>
<path d="M31.3311 22.9164L17.723 16.1124C17.5394 16.0273 17.3375 15.9896 17.1356 16.0025C16.9337 16.0154 16.7382 16.0786 16.567 16.1864C16.3957 16.2941 16.2541 16.443 16.1551 16.6194C16.0561 16.7959 16.0028 16.9943 16 17.1966V30.7988C15.9983 31.0065 16.0502 31.2111 16.1507 31.3928C16.2512 31.5746 16.3968 31.7274 16.5736 31.8364C16.7504 31.9454 16.9523 32.0069 17.1598 32.0151C17.3673 32.0233 17.5734 31.9778 17.7582 31.883L31.3311 25.079C31.5322 24.978 31.7012 24.8232 31.8193 24.6317C31.9374 24.4403 32 24.2197 32 23.9948C32 23.7698 31.9374 23.5493 31.8193 23.3578C31.7012 23.1664 31.5322 23.0115 31.3311 22.9106V22.9164Z" fill="white"/>
<defs>
<linearGradient id="paint0_linear" x1="48" y1="24" x2="96" y2="24" gradientUnits="userSpaceOnUse">
<stop stop-color="#4CB8C4"/>
<stop offset="1" stop-color="#3CD3AD"/>
</linearGradient>
</defs>
</svg>
