<svg width="49" height="51" viewBox="0 0 49 51" fill="none" xmlns="http://www.w3.org/2000/svg">
<path d="M22.5433 16.5771C21.0482 16.5749 19.6006 17.101 18.4568 18.0622C17.313 19.0234 16.5469 20.3578 16.2941 21.8289C16.0414 23.3 16.3183 24.813 17.0758 26.0998C17.8333 27.3866 19.0226 28.3643 20.433 28.8596C20.4228 28.9788 20.4228 29.0986 20.433 29.2178V41.8584C20.433 42.4172 20.6553 42.953 21.0511 43.3481C21.4468 43.7432 21.9836 43.9652 22.5433 43.9652C23.103 43.9652 23.6397 43.7432 24.0355 43.3481C24.4312 42.953 24.6536 42.4172 24.6536 41.8584V29.2178C24.6638 29.0986 24.6638 28.9788 24.6536 28.8596C26.0639 28.3643 27.2532 27.3866 28.0108 26.0998C28.7683 24.813 29.0452 23.3 28.7925 21.8289C28.5397 20.3578 27.7736 19.0234 26.6298 18.0622C25.486 17.101 24.0384 16.5749 22.5433 16.5771ZM4.60583 22.8974C4.66347 20.7644 5.19281 18.6705 6.15596 16.7656C7.1191 14.8607 8.49222 13.192 10.177 11.879C10.6079 11.5214 10.879 11.0075 10.9304 10.4504C10.9819 9.89333 10.8095 9.33866 10.4513 8.90842C10.274 8.69538 10.0563 8.51931 9.81079 8.39026C9.56527 8.2612 9.29669 8.18169 9.02039 8.15625C8.46238 8.10489 7.90678 8.27693 7.47582 8.63454C5.31137 10.3408 3.55281 12.505 2.32674 14.9713C1.10067 17.4376 0.437595 20.1446 0.385254 22.8974C0.437595 25.6502 1.10067 28.3572 2.32674 30.8235C3.55281 33.2898 5.31137 35.454 7.47582 37.1603C7.68921 37.3374 7.93544 37.4707 8.20046 37.5528C8.46548 37.6349 8.74409 37.664 9.02039 37.6386C9.29669 37.6132 9.56527 37.5336 9.81079 37.4046C10.0563 37.2755 10.274 37.0995 10.4513 36.8864C10.6287 36.6734 10.7623 36.4276 10.8445 36.163C10.9267 35.8984 10.9559 35.6203 10.9304 35.3444C10.9049 35.0686 10.8253 34.8004 10.696 34.5553C10.5667 34.3102 10.3904 34.0929 10.177 33.9159C8.49222 32.6028 7.1191 30.9341 6.15596 29.0292C5.19281 27.1244 4.66347 25.0304 4.60583 22.8974Z" fill="url(#paint0_linear)"/>
<path d="M32.3355 12.8701C31.9038 12.5837 31.3816 12.4659 30.8685 12.5392C30.3554 12.6126 29.8872 12.8719 29.5533 13.2677C29.2195 13.6635 29.0432 14.1682 29.0581 14.6854C29.0731 15.2027 29.2782 15.6964 29.6343 16.0724C30.6772 16.8873 31.5278 17.9211 32.1259 19.1007C32.7239 20.2803 33.0549 21.5768 33.0952 22.8983C33.0549 24.2198 32.7239 25.5163 32.1259 26.6959C31.5278 27.8755 30.6772 28.9094 29.6343 29.7243C29.3078 30.003 29.0742 30.3746 28.9649 30.7894C28.8556 31.2042 28.8757 31.6424 29.0225 32.0455C29.1693 32.4486 29.4359 32.7973 29.7865 33.0451C30.1372 33.2929 30.5553 33.428 30.9849 33.4322C31.4806 33.4273 31.9588 33.2483 32.3355 32.9266C33.8581 31.7279 35.0948 30.2064 35.9561 28.472C36.8174 26.7377 37.2819 24.8338 37.3158 22.8983C37.2819 20.9628 36.8174 19.059 35.9561 17.3246C35.0948 15.5903 33.8581 14.0687 32.3355 12.8701ZM15.7064 13.1229C15.3462 12.7013 14.8342 12.4384 14.2812 12.3911C13.7282 12.3438 13.1788 12.5159 12.752 12.8701C11.2294 14.0687 9.99271 15.5903 9.13138 17.3246C8.27006 19.059 7.80564 20.9628 7.77173 22.8983C7.80564 24.8338 8.27006 26.7377 9.13138 28.472C9.99271 30.2064 11.2294 31.7279 12.752 32.9266C13.1788 33.2808 13.7282 33.4528 14.2812 33.4055C14.8342 33.3582 15.3462 33.0953 15.7064 32.6738C16.0612 32.2477 16.2335 31.6992 16.1861 31.1471C16.1387 30.5951 15.8754 30.0839 15.4532 29.7243C14.4103 28.9094 13.5597 27.8755 12.9616 26.6959C12.3636 25.5163 12.0326 24.2198 11.9923 22.8983C12.0326 21.5768 12.3636 20.2803 12.9616 19.1007C13.5597 17.9211 14.4103 16.8873 15.4532 16.0724C15.8754 15.7128 16.1387 15.2016 16.1861 14.6495C16.2335 14.0974 16.0612 13.549 15.7064 13.1229Z" fill="url(#paint1_linear)"/>
<path d="M37.6115 8.63453C37.3981 8.45746 37.1518 8.32409 36.8868 8.24203C36.6218 8.15996 36.3432 8.13082 36.0669 8.15625C35.7906 8.18168 35.522 8.26119 35.2765 8.39025C35.031 8.51931 34.8133 8.69538 34.636 8.90841C34.4586 9.12144 34.325 9.36727 34.2428 9.63184C34.1606 9.89642 34.1314 10.1746 34.1569 10.4504C34.1824 10.7263 34.262 10.9944 34.3913 11.2395C34.5205 11.4846 34.6969 11.7019 34.9103 11.879C36.5951 13.192 37.9682 14.8607 38.9313 16.7656C39.8945 18.6705 40.4238 20.7644 40.4815 22.8974C40.4238 25.0304 39.8945 27.1244 38.9313 29.0292C37.9682 30.9341 36.5951 32.6028 34.9103 33.9159C34.4793 34.2735 34.2083 34.7873 34.1569 35.3444C34.1054 35.9015 34.2778 36.4562 34.636 36.8864C34.9942 37.3167 35.5089 37.5872 36.0669 37.6386C36.6249 37.6899 37.1805 37.5179 37.6115 37.1603C39.7759 35.454 41.5345 33.2898 42.7605 30.8235C43.9866 28.3572 44.6497 25.6502 44.702 22.8974C44.6497 20.1446 43.9866 17.4376 42.7605 14.9713C41.5345 12.505 39.7759 10.3408 37.6115 8.63453Z" fill="url(#paint2_linear)"/>
<defs>
<linearGradient id="paint0_linear" x1="0.385254" y1="26.0563" x2="28.8836" y2="26.0563" gradientUnits="userSpaceOnUse">
<stop stop-color="#4CB8C4"/>
<stop offset="1" stop-color="#3CD3AD"/>
</linearGradient>
<linearGradient id="paint1_linear" x1="7.77173" y1="22.9078" x2="37.3158" y2="22.9078" gradientUnits="userSpaceOnUse">
<stop stop-color="#4CB8C4"/>
<stop offset="1" stop-color="#3CD3AD"/>
</linearGradient>
<linearGradient id="paint2_linear" x1="34.1479" y1="22.8974" x2="44.702" y2="22.8974" gradientUnits="userSpaceOnUse">
<stop stop-color="#4CB8C4"/>
<stop offset="1" stop-color="#3CD3AD"/>
</linearGradient>
</defs>
</svg>
