<svg width="28" height="31" viewBox="0 0 28 31" fill="none" xmlns="http://www.w3.org/2000/svg">
<path d="M13.5756 10.1733C12.6596 10.1719 11.7727 10.4948 11.0719 11.0847C10.3712 11.6746 9.9018 12.4935 9.74694 13.3963C9.59208 14.2991 9.76174 15.2276 10.2259 16.0173C10.69 16.8071 11.4186 17.407 12.2827 17.711C12.2765 17.7841 12.2765 17.8577 12.2827 17.9308V25.6883C12.2827 26.0312 12.4189 26.3601 12.6614 26.6025C12.9039 26.845 13.2327 26.9812 13.5756 26.9812C13.9185 26.9812 14.2474 26.845 14.4899 26.6025C14.7323 26.3601 14.8686 26.0312 14.8686 25.6883V17.9308C14.8748 17.8577 14.8748 17.7841 14.8686 17.711C15.7327 17.407 16.4613 16.8071 16.9254 16.0173C17.3895 15.2276 17.5592 14.2991 17.4043 13.3963C17.2495 12.4935 16.7801 11.6746 16.0793 11.0847C15.3786 10.4948 14.4916 10.1719 13.5756 10.1733ZM2.58584 14.052C2.62115 12.743 2.94547 11.458 3.53556 10.289C4.12565 9.11997 4.96693 8.09589 5.99914 7.29008C6.26318 7.07062 6.42922 6.75527 6.46074 6.41339C6.49226 6.0715 6.38668 5.7311 6.16722 5.46707C6.05855 5.33633 5.9252 5.22828 5.77478 5.14908C5.62436 5.06988 5.4598 5.02108 5.29052 5.00547C4.94864 4.97395 4.60824 5.07953 4.3442 5.29899C3.0181 6.34614 1.94068 7.6743 1.1895 9.18784C0.438316 10.7014 0.0320679 12.3626 0 14.052C0.0320679 15.7414 0.438316 17.4027 1.1895 18.9162C1.94068 20.4298 3.0181 21.7579 4.3442 22.8051C4.47494 22.9138 4.6258 22.9956 4.78817 23.046C4.95054 23.0963 5.12124 23.1142 5.29052 23.0986C5.4598 23.083 5.62436 23.0342 5.77478 22.955C5.9252 22.8758 6.05855 22.7677 6.16722 22.637C6.27588 22.5063 6.35773 22.3554 6.4081 22.193C6.45846 22.0307 6.47635 21.86 6.46074 21.6907C6.44513 21.5214 6.39633 21.3569 6.31713 21.2064C6.23793 21.056 6.12988 20.9227 5.99914 20.814C4.96693 20.0082 4.12565 18.9841 3.53556 17.8151C2.94547 16.6461 2.62115 15.3611 2.58584 14.052Z" fill="url(#paint0_linear)"/>
<path d="M19.5752 7.89825C19.3107 7.72249 18.9908 7.65022 18.6764 7.69522C18.362 7.74023 18.0752 7.89936 17.8707 8.14228C17.6661 8.38519 17.5581 8.6949 17.5672 9.01234C17.5764 9.32979 17.7021 9.63276 17.9203 9.86349C18.5592 10.3636 19.0803 10.9981 19.4468 11.722C19.8132 12.4459 20.0159 13.2415 20.0407 14.0525C20.0159 14.8635 19.8132 15.6592 19.4468 16.3831C19.0803 17.107 18.5592 17.7415 17.9203 18.2416C17.7202 18.4127 17.5771 18.6407 17.5101 18.8953C17.4432 19.1498 17.4555 19.4187 17.5454 19.6661C17.6354 19.9135 17.7987 20.1275 18.0135 20.2796C18.2284 20.4317 18.4845 20.5145 18.7477 20.5171C19.0514 20.5141 19.3444 20.4042 19.5752 20.2068C20.5081 19.4712 21.2658 18.5375 21.7935 17.4731C22.3212 16.4087 22.6057 15.2404 22.6265 14.0525C22.6057 12.8647 22.3212 11.6964 21.7935 10.632C21.2658 9.56763 20.5081 8.63387 19.5752 7.89825ZM9.38701 8.0534C9.16632 7.79471 8.8526 7.63338 8.51381 7.60434C8.17501 7.5753 7.83842 7.68089 7.57692 7.89825C6.64406 8.63387 5.88637 9.56763 5.35866 10.632C4.83095 11.6964 4.54641 12.8647 4.52563 14.0525C4.54641 15.2404 4.83095 16.4087 5.35866 17.4731C5.88637 18.5375 6.64406 19.4712 7.57692 20.2068C7.83842 20.4242 8.17501 20.5298 8.51381 20.5007C8.8526 20.4717 9.16632 20.3104 9.38701 20.0517C9.60437 19.7902 9.70996 19.4536 9.68092 19.1148C9.65188 18.776 9.49055 18.4623 9.23186 18.2416C8.59293 17.7415 8.07179 17.107 7.70536 16.3831C7.33893 15.6592 7.13618 14.8635 7.11147 14.0525C7.13618 13.2415 7.33893 12.4459 7.70536 11.722C8.07179 10.9981 8.59293 10.3636 9.23186 9.86349C9.49055 9.6428 9.65188 9.32908 9.68092 8.99029C9.70996 8.65149 9.60437 8.3149 9.38701 8.0534Z" fill="url(#paint1_linear)"/>
<path d="M22.8073 5.29899C22.6766 5.19032 22.5257 5.10847 22.3633 5.05811C22.201 5.00775 22.0303 4.98986 21.861 5.00547C21.6917 5.02107 21.5272 5.06987 21.3767 5.14907C21.2263 5.22827 21.093 5.33633 20.9843 5.46707C20.8756 5.5978 20.7938 5.74866 20.7434 5.91103C20.6931 6.0734 20.6752 6.2441 20.6908 6.41338C20.7064 6.58266 20.7552 6.74722 20.8344 6.89764C20.9136 7.04806 21.0216 7.18141 21.1524 7.29008C22.1846 8.09589 23.0259 9.11996 23.6159 10.289C24.206 11.458 24.5304 12.743 24.5657 14.052C24.5304 15.3611 24.206 16.6461 23.6159 17.8151C23.0259 18.9841 22.1846 20.0082 21.1524 20.814C20.8883 21.0335 20.7223 21.3488 20.6908 21.6907C20.6593 22.0326 20.7648 22.373 20.9843 22.637C21.2037 22.901 21.5191 23.0671 21.861 23.0986C22.2029 23.1301 22.5433 23.0245 22.8073 22.8051C24.1334 21.7579 25.2108 20.4298 25.962 18.9162C26.7132 17.4027 27.1194 15.7414 27.1515 14.052C27.1194 12.3626 26.7132 10.7014 25.962 9.18784C25.2108 7.6743 24.1334 6.34614 22.8073 5.29899Z" fill="url(#paint2_linear)"/>
<defs>
<linearGradient id="paint0_linear" x1="0" y1="15.9906" x2="17.4602" y2="15.9906" gradientUnits="userSpaceOnUse">
<stop stop-color="#4CB8C4"/>
<stop offset="1" stop-color="#3CD3AD"/>
</linearGradient>
<linearGradient id="paint1_linear" x1="4.52563" y1="14.0584" x2="22.6265" y2="14.0584" gradientUnits="userSpaceOnUse">
<stop stop-color="#4CB8C4"/>
<stop offset="1" stop-color="#3CD3AD"/>
</linearGradient>
<linearGradient id="paint2_linear" x1="20.6853" y1="14.052" x2="27.1515" y2="14.052" gradientUnits="userSpaceOnUse">
<stop stop-color="#4CB8C4"/>
<stop offset="1" stop-color="#3CD3AD"/>
</linearGradient>
</defs>
</svg>
