<svg width="22" height="17" viewBox="0 0 22 17" fill="none" xmlns="http://www.w3.org/2000/svg">
<path d="M11.3749 4.00121C10.6664 4.00016 9.98044 4.24987 9.43845 4.70613C8.89645 5.16238 8.53341 5.79574 8.41364 6.49401C8.29387 7.19228 8.42509 7.91042 8.78406 8.52121C9.14303 9.13201 9.70658 9.59605 10.3749 9.83115C10.3701 9.88772 10.3701 9.94459 10.3749 10.0012V16.0011C10.3749 16.2663 10.4803 16.5207 10.6678 16.7082C10.8553 16.8957 11.1097 17.0011 11.3749 17.0011C11.6401 17.0011 11.8945 16.8957 12.082 16.7082C12.2695 16.5207 12.3749 16.2663 12.3749 16.0011V10.0012C12.3797 9.94459 12.3797 9.88772 12.3749 9.83115C13.0432 9.59605 13.6068 9.13201 13.9657 8.52121C14.3247 7.91042 14.4559 7.19228 14.3362 6.49401C14.2164 5.79574 13.8534 5.16238 13.3114 4.70613C12.7694 4.24987 12.0834 4.00016 11.3749 4.00121ZM2.87498 7.00118C2.90229 5.98873 3.15313 4.99485 3.60953 4.09069C4.06593 3.18654 4.7166 2.39448 5.51496 1.77123C5.71917 1.6015 5.84759 1.35759 5.87197 1.09316C5.89635 0.828741 5.81469 0.565463 5.64495 0.361249C5.56091 0.260132 5.45777 0.176559 5.34143 0.115302C5.22508 0.0540448 5.09781 0.016303 4.96688 0.00423146C4.70246 -0.020148 4.43918 0.0615131 4.23497 0.23125C3.20931 1.04116 2.37599 2.0684 1.795 3.23903C1.21401 4.40966 0.899802 5.69454 0.875 7.00118C0.899802 8.30782 1.21401 9.5927 1.795 10.7633C2.37599 11.934 3.20931 12.9612 4.23497 13.7711C4.33608 13.8552 4.45277 13.9185 4.57835 13.9574C4.70393 13.9964 4.83595 14.0102 4.96688 13.9981C5.09781 13.9861 5.22508 13.9483 5.34143 13.8871C5.45777 13.8258 5.56091 13.7422 5.64495 13.6411C5.729 13.54 5.7923 13.4233 5.83126 13.2977C5.87021 13.1722 5.88404 13.0401 5.87197 12.9092C5.8599 12.7783 5.82216 12.651 5.7609 12.5347C5.69965 12.4183 5.61607 12.3152 5.51496 12.2311C4.7166 11.6079 4.06593 10.8158 3.60953 9.91167C3.15313 9.00752 2.90229 8.01363 2.87498 7.00118Z" fill="white"/>
<path d="M16.0153 2.24172C15.8107 2.10578 15.5632 2.04989 15.3201 2.08469C15.0769 2.1195 14.8551 2.24258 14.6969 2.43046C14.5387 2.61834 14.4551 2.85788 14.4622 3.1034C14.4693 3.34892 14.5665 3.58325 14.7353 3.76171C15.2294 4.1485 15.6325 4.63923 15.9159 5.19914C16.1993 5.75904 16.3561 6.37442 16.3753 7.00168C16.3561 7.62893 16.1993 8.24431 15.9159 8.80422C15.6325 9.36412 15.2294 9.85485 14.7353 10.2416C14.5805 10.3739 14.4699 10.5503 14.4181 10.7472C14.3662 10.9441 14.3758 11.1521 14.4453 11.3434C14.5149 11.5348 14.6412 11.7003 14.8074 11.8179C14.9736 11.9355 15.1717 11.9996 15.3753 12.0016C15.6102 11.9993 15.8367 11.9143 16.0153 11.7616C16.7368 11.1927 17.3228 10.4705 17.7309 9.64725C18.1391 8.82403 18.3592 7.92038 18.3752 7.00168C18.3592 6.08297 18.1391 5.17932 17.7309 4.3561C17.3228 3.53288 16.7368 2.81068 16.0153 2.24172ZM8.13533 2.36172C7.96464 2.16164 7.722 2.03686 7.45996 2.0144C7.19793 1.99194 6.93759 2.07361 6.73534 2.24172C6.01384 2.81068 5.42781 3.53288 5.01966 4.3561C4.61151 5.17932 4.39144 6.08297 4.37537 7.00168C4.39144 7.92038 4.61151 8.82403 5.01966 9.64725C5.42781 10.4705 6.01384 11.1927 6.73534 11.7616C6.93759 11.9297 7.19793 12.0114 7.45996 11.989C7.722 11.9665 7.96464 11.8417 8.13533 11.6416C8.30345 11.4394 8.38512 11.179 8.36266 10.917C8.3402 10.655 8.21541 10.4123 8.01533 10.2416C7.52116 9.85485 7.11809 9.36412 6.83468 8.80422C6.55128 8.24431 6.39446 7.62893 6.37535 7.00168C6.39446 6.37442 6.55128 5.75904 6.83468 5.19914C7.11809 4.63923 7.52116 4.1485 8.01533 3.76171C8.21541 3.59102 8.3402 3.34838 8.36266 3.08634C8.38512 2.82431 8.30345 2.56397 8.13533 2.36172Z" fill="white"/>
<path d="M18.515 0.231247C18.4139 0.147202 18.2972 0.0838963 18.1716 0.0449444C18.0461 0.00599254 17.914 -0.00784284 17.7831 0.00422865C17.6522 0.0163001 17.5249 0.054042 17.4086 0.115299C17.2922 0.176556 17.1891 0.260129 17.105 0.361246C17.021 0.462363 16.9577 0.579043 16.9187 0.704626C16.8798 0.830208 16.8659 0.962233 16.878 1.09316C16.8901 1.22409 16.9278 1.35136 16.9891 1.4677C17.0503 1.58405 17.1339 1.68719 17.235 1.77123C18.0334 2.39447 18.684 3.18653 19.1404 4.09069C19.5968 4.99484 19.8477 5.98873 19.875 7.00118C19.8477 8.01363 19.5968 9.00751 19.1404 9.91167C18.684 10.8158 18.0334 11.6079 17.235 12.2311C17.0308 12.4009 16.9024 12.6448 16.878 12.9092C16.8536 13.1736 16.9353 13.4369 17.105 13.6411C17.2748 13.8453 17.5187 13.9737 17.7831 13.9981C18.0475 14.0225 18.3108 13.9408 18.515 13.7711C19.5407 12.9612 20.374 11.934 20.955 10.7633C21.536 9.5927 21.8502 8.30782 21.875 7.00118C21.8502 5.69454 21.536 4.40965 20.955 3.23903C20.374 2.0684 19.5407 1.04115 18.515 0.231247Z" fill="white"/>
</svg>
