<svg width="24" height="24" viewBox="0 0 24 24" fill="none" xmlns="http://www.w3.org/2000/svg">
<path fill-rule="evenodd" clip-rule="evenodd" d="M18.1084 16.3666C19.6849 14.3341 20.4279 11.7774 20.1862 9.21655C19.9445 6.65571 18.7363 4.28312 16.8074 2.58147C14.8785 0.879812 12.3737 -0.0230775 9.80274 0.0564799C7.23174 0.136037 4.78762 1.19207 2.96761 3.00973C1.14601 4.82865 0.0865284 7.27371 0.00506986 9.84666C-0.0763886 12.4196 0.826307 14.9268 2.5292 16.8573C4.23209 18.7878 6.60703 19.9963 9.17002 20.2366C11.733 20.4769 14.2912 19.7308 16.3232 18.1505L16.3776 18.2074L21.7406 23.5716C21.858 23.6891 21.9975 23.7823 22.151 23.8458C22.3044 23.9094 22.4689 23.9421 22.635 23.9421C22.8012 23.9421 22.9656 23.9094 23.1191 23.8458C23.2726 23.7823 23.412 23.6891 23.5295 23.5716C23.647 23.4542 23.7401 23.3147 23.8037 23.1612C23.8673 23.0078 23.9 22.8433 23.9 22.6772C23.9 22.511 23.8673 22.3465 23.8037 22.1931C23.7401 22.0396 23.647 21.9002 23.5295 21.7827L18.1653 16.4197C18.1468 16.4015 18.1278 16.3838 18.1084 16.3666ZM15.4838 4.79865C16.1976 5.50092 16.7653 6.33757 17.1541 7.26033C17.5429 8.1831 17.7452 9.17372 17.7493 10.1751C17.7534 11.1764 17.5592 12.1686 17.1779 13.0945C16.7965 14.0204 16.2357 14.8617 15.5276 15.5697C14.8196 16.2778 13.9783 16.8387 13.0524 17.22C12.1265 17.6013 11.1343 17.7955 10.1329 17.7914C9.1316 17.7874 8.14098 17.5851 7.21822 17.1962C6.29545 16.8074 5.4588 16.2397 4.75653 15.5259C3.3531 14.0994 2.5702 12.1762 2.57834 10.1751C2.58649 8.17397 3.38504 6.25715 4.80004 4.84215C6.21504 3.42716 8.13185 2.62861 10.1329 2.62046C12.134 2.61231 14.0573 3.39522 15.4838 4.79865Z" fill="url(#paint0_linear)"/>
<defs>
<linearGradient id="paint0_linear" x1="0" y1="11.9969" x2="23.9" y2="11.9969" gradientUnits="userSpaceOnUse">
<stop stop-color="#4CB8C4"/>
<stop offset="1" stop-color="#3CD3AD"/>
</linearGradient>
</defs>
</svg>
