<svg width="20" height="19" viewBox="0 0 20 19" fill="none" xmlns="http://www.w3.org/2000/svg">
<path fill-rule="evenodd" clip-rule="evenodd" d="M14.7462 13.0077C15.9931 11.4 16.5808 9.37772 16.3897 7.35215C16.1985 5.32658 15.2428 3.44991 13.7171 2.10394C12.1914 0.757974 10.2102 0.0438087 8.1766 0.106737C6.143 0.169665 4.20975 1.00496 2.77016 2.44269C1.32932 3.88142 0.491294 5.81541 0.426862 7.85055C0.36243 9.8857 1.07644 11.8688 2.42339 13.3958C3.77034 14.9228 5.64886 15.8787 7.67614 16.0688C9.70341 16.2588 11.7269 15.6687 13.3342 14.4187L13.3772 14.4637L17.6192 18.7067C17.7121 18.7996 17.8224 18.8733 17.9438 18.9236C18.0652 18.9739 18.1953 18.9997 18.3267 18.9997C18.4581 18.9997 18.5882 18.9739 18.7096 18.9236C18.831 18.8733 18.9413 18.7996 19.0342 18.7067C19.1271 18.6138 19.2008 18.5035 19.2511 18.3821C19.3013 18.2607 19.3272 18.1306 19.3272 17.9992C19.3272 17.8678 19.3013 17.7377 19.2511 17.6163C19.2008 17.4949 19.1271 17.3846 19.0342 17.2917L14.7912 13.0497C14.7766 13.0353 14.7615 13.0213 14.7462 13.0077ZM12.6702 3.85769C13.2348 4.41317 13.6838 5.07494 13.9914 5.80483C14.2989 6.53471 14.4589 7.31827 14.4622 8.11031C14.4654 8.90235 14.3118 9.68718 14.0102 10.4196C13.7085 11.1519 13.2649 11.8173 12.7049 12.3774C12.1448 12.9374 11.4794 13.3811 10.747 13.6827C10.0147 13.9843 9.22982 14.1379 8.43778 14.1347C7.64575 14.1315 6.86219 13.9715 6.1323 13.6639C5.40241 13.3563 4.74064 12.9073 4.18516 12.3427C3.07508 11.2144 2.45582 9.69313 2.46226 8.11031C2.46871 6.52749 3.10034 5.01133 4.21957 3.8921C5.33881 2.77287 6.85496 2.14123 8.43778 2.13479C10.0206 2.12834 11.5419 2.74761 12.6702 3.85769Z" fill="white"/>
</svg>
