<svg width="17" height="16" viewBox="0 0 17 16" fill="none" xmlns="http://www.w3.org/2000/svg">
<path d="M16.1394 14.8499L10.9455 9.65596C11.7514 8.61396 12.1874 7.33997 12.1874 5.99997C12.1874 4.39598 11.5615 2.89199 10.4295 1.75799C9.29746 0.623997 7.78947 0 6.18747 0C4.58548 0 3.07749 0.625997 1.94549 1.75799C0.811497 2.88999 0.1875 4.39598 0.1875 5.99997C0.1875 7.60197 0.813497 9.10996 1.94549 10.242C3.07749 11.3759 4.58348 11.9999 6.18747 11.9999C7.52747 11.9999 8.79946 11.5639 9.84146 10.76L15.0354 15.9519C15.0507 15.9672 15.0687 15.9793 15.0887 15.9875C15.1086 15.9958 15.1299 16 15.1514 16C15.173 16 15.1943 15.9958 15.2142 15.9875C15.2341 15.9793 15.2522 15.9672 15.2674 15.9519L16.1394 15.0819C16.1547 15.0667 16.1668 15.0486 16.175 15.0287C16.1833 15.0088 16.1875 14.9875 16.1875 14.9659C16.1875 14.9444 16.1833 14.9231 16.175 14.9032C16.1668 14.8832 16.1547 14.8652 16.1394 14.8499ZM9.35546 9.16796C8.50746 10.014 7.38347 10.48 6.18747 10.48C4.99148 10.48 3.86748 10.014 3.01949 9.16796C2.17349 8.31996 1.70749 7.19597 1.70749 5.99997C1.70749 4.80398 2.17349 3.67798 3.01949 2.83199C3.86748 1.98599 4.99148 1.51999 6.18747 1.51999C7.38347 1.51999 8.50946 1.98399 9.35546 2.83199C10.2015 3.67998 10.6675 4.80398 10.6675 5.99997C10.6675 7.19597 10.2015 8.32196 9.35546 9.16796Z" fill="#8F8F8F"/>
</svg>
