<svg width="24" height="20" viewBox="0 0 24 20" fill="none" xmlns="http://www.w3.org/2000/svg">
<path d="M18.8508 5.97757C18.6685 5.7479 18.4041 5.60132 18.1156 5.57009C17.8271 5.53886 17.5383 5.62553 17.3126 5.81104C17.087 5.99655 16.9429 6.26569 16.9122 6.55927C16.8816 6.85285 16.9667 7.14681 17.149 7.37648C17.7001 8.13912 17.9974 9.06105 17.9974 10.0078C17.9974 10.9545 17.7001 11.8764 17.149 12.639C17.0189 12.8022 16.937 12.9996 16.9128 13.2082C16.8886 13.4169 16.923 13.6282 17.0121 13.8177C17.1012 14.0072 17.2414 14.1671 17.4162 14.2788C17.5911 14.3905 17.7935 14.4494 17.9999 14.4487C18.1629 14.4493 18.3239 14.4127 18.4712 14.3416C18.6184 14.2705 18.7481 14.1668 18.8508 14.0379C19.7161 12.8789 20.1846 11.4634 20.1846 10.0078C20.1846 8.55214 19.7161 7.13658 18.8508 5.97757Z" fill="white"/>
<path d="M20.3345 2.49136C20.2242 2.39805 20.0969 2.32776 19.9599 2.28451C19.8229 2.24127 19.6789 2.22591 19.5361 2.23931C19.3932 2.25271 19.2544 2.29462 19.1275 2.36263C19.0006 2.43064 18.8881 2.52342 18.7964 2.63569C18.7047 2.74796 18.6356 2.8775 18.5931 3.01693C18.5506 3.15636 18.5355 3.30294 18.5487 3.4483C18.5619 3.59367 18.603 3.73497 18.6699 3.86414C18.7367 3.99331 18.8279 4.10782 18.9382 4.20113C19.8131 4.88934 20.5258 5.76792 21.0241 6.77258C21.5224 7.77724 21.7937 8.88258 21.8182 10.0077C21.7937 11.1328 21.5224 12.2382 21.0241 13.2428C20.5258 14.2475 19.8131 15.1261 18.9382 15.8143C18.8277 15.9075 18.7364 16.0219 18.6695 16.1511C18.6025 16.2803 18.5613 16.4216 18.5481 16.5671C18.535 16.7125 18.5501 16.8591 18.5927 16.9986C18.6353 17.138 18.7045 17.2675 18.7964 17.3797C18.8989 17.505 19.0274 17.6058 19.1726 17.6749C19.3177 17.744 19.4761 17.7797 19.6364 17.7794C19.8913 17.7799 20.1383 17.6896 20.3345 17.5241C21.4587 16.6297 22.3715 15.4902 23.0058 14.1894C23.6401 12.8887 23.9799 11.4597 24 10.0077C23.9799 8.5557 23.6401 7.12675 23.0058 5.82599C22.3715 4.52523 21.4587 3.38574 20.3345 2.49136ZM14.6945 0.148744C14.5287 0.0513001 14.3406 0 14.1491 0C13.9576 0 13.7695 0.0513001 13.6036 0.148744L6.54545 5.08933H1.09091C0.801582 5.08933 0.524105 5.2063 0.31952 5.41451C0.114935 5.62272 0 5.90512 0 6.19957V13.8158C0 14.1103 0.114935 14.3927 0.31952 14.6009C0.524105 14.8091 0.801582 14.9261 1.09091 14.9261H6.54545L13.5382 19.8112C13.7297 19.9373 13.9537 20.003 14.1818 19.9999C14.4711 19.9999 14.7486 19.8829 14.9532 19.6747C15.1578 19.4665 15.2727 19.1841 15.2727 18.8897V1.12576C15.2722 0.924911 15.2181 0.72797 15.1163 0.555917C15.0145 0.383864 14.8687 0.243142 14.6945 0.148744Z" fill="white"/>
</svg>
