<svg width="27" height="21" viewBox="0 0 27 21" fill="none" xmlns="http://www.w3.org/2000/svg">
<path d="M11.3239 0.491731L6.68995 5.12459H1.37428C0.683648 5.12459 0.124268 5.68397 0.124268 6.3746V13.8747C0.124268 14.5648 0.683648 15.1247 1.37428 15.1247H6.68995L11.3239 19.7575C12.1067 20.5404 13.4577 19.9904 13.4577 18.8737V1.37559C13.4577 0.257874 12.1056 -0.290048 11.3239 0.491731ZM24.1682 10.1246L26.5454 7.74753C26.8735 7.4194 26.8735 6.8871 26.5454 6.55898L25.3568 5.37042C25.0287 5.04229 24.4964 5.04229 24.1682 5.37042L21.7911 7.74753L19.414 5.37042C19.0859 5.04229 18.5536 5.04229 18.2255 5.37042L17.0369 6.55898C16.7088 6.8871 16.7088 7.4194 17.0369 7.74753L19.414 10.1246L17.0374 12.5012C16.7093 12.8293 16.7093 13.3616 17.0374 13.6898L18.226 14.8783C18.5541 15.2065 19.0864 15.2065 19.4146 14.8783L21.7911 12.5017L24.1682 14.8788C24.4964 15.207 25.0287 15.207 25.3568 14.8788L26.5454 13.6903C26.8735 13.3622 26.8735 12.8299 26.5454 12.5017L24.1682 10.1246Z" fill="#015C5D"/>
</svg>
