<svg width="25" height="21" viewBox="0 0 25 21" fill="none" xmlns="http://www.w3.org/2000/svg">
<path d="M18.9752 6.89225C18.7929 6.66257 18.5285 6.516 18.24 6.48477C17.9515 6.45353 17.6627 6.5402 17.437 6.72571C17.2113 6.91122 17.0673 7.18036 17.0366 7.47394C17.0059 7.76752 17.0911 8.06148 17.2734 8.29115C17.8245 9.05379 18.1218 9.97573 18.1218 10.9224C18.1218 11.8691 17.8245 12.7911 17.2734 13.5537C17.1433 13.7169 17.0614 13.9142 17.0372 14.1229C17.013 14.3315 17.0474 14.5429 17.1365 14.7324C17.2256 14.9219 17.3658 15.0818 17.5406 15.1935C17.7155 15.3052 17.9179 15.3641 18.1243 15.3634C18.2873 15.364 18.4483 15.3274 18.5955 15.2563C18.7428 15.1852 18.8725 15.0814 18.9752 14.9526C19.8405 13.7936 20.309 12.3781 20.309 10.9224C20.309 9.46681 19.8405 8.05125 18.9752 6.89225Z" fill="#015C5D"/>
<path d="M20.4588 3.40591C20.3485 3.3126 20.2212 3.24231 20.0842 3.19907C19.9472 3.15582 19.8032 3.14046 19.6604 3.15386C19.5175 3.16726 19.3787 3.20917 19.2518 3.27718C19.1248 3.34519 19.0123 3.43797 18.9206 3.55024C18.8289 3.66251 18.7599 3.79205 18.7174 3.93148C18.6749 4.07091 18.6598 4.21749 18.673 4.36285C18.6861 4.50822 18.7273 4.64952 18.7941 4.77869C18.861 4.90786 18.9521 5.02237 19.0625 5.11568C19.9374 5.80389 20.6501 6.68247 21.1484 7.68713C21.6467 8.69179 21.918 9.79713 21.9424 10.9223C21.918 12.0474 21.6467 13.1527 21.1484 14.1574C20.6501 15.162 19.9374 16.0406 19.0625 16.7288C18.952 16.822 18.8607 16.9365 18.7937 17.0657C18.7268 17.1948 18.6856 17.3362 18.6724 17.4816C18.6592 17.627 18.6744 17.7737 18.717 17.9131C18.7596 18.0526 18.8288 18.1821 18.9206 18.2943C19.0232 18.4196 19.1516 18.5204 19.2968 18.5895C19.442 18.6585 19.6004 18.6942 19.7606 18.694C20.0155 18.6945 20.2625 18.6041 20.4588 18.4386C21.5829 17.5442 22.4957 16.4047 23.1301 15.104C23.7644 13.8032 24.1041 12.3743 24.1243 10.9223C24.1041 9.47025 23.7644 8.0413 23.1301 6.74054C22.4957 5.43978 21.5829 4.30029 20.4588 3.40591ZM14.8188 1.0633C14.653 0.965851 14.4649 0.914551 14.2734 0.914551C14.0819 0.914551 13.8937 0.965851 13.7279 1.0633L6.66972 6.00388H1.21518C0.92585 6.00388 0.648373 6.12085 0.443787 6.32906C0.239202 6.53727 0.124268 6.81967 0.124268 7.11412V14.7304C0.124268 15.0248 0.239202 15.3072 0.443787 15.5155C0.648373 15.7237 0.92585 15.8406 1.21518 15.8406H6.66972L13.6624 20.7257C13.854 20.8519 14.0779 20.9175 14.3061 20.9144C14.5954 20.9144 14.8729 20.7975 15.0775 20.5893C15.2821 20.3811 15.397 20.0987 15.397 19.8042V2.04031C15.3965 1.83946 15.3424 1.64252 15.2406 1.47047C15.1388 1.29841 14.993 1.15769 14.8188 1.0633Z" fill="#015C5D"/>
</svg>
