<svg width="23" height="16" viewBox="0 0 23 16" fill="none" xmlns="http://www.w3.org/2000/svg">
<path d="M22.3515 2.49936C22.2216 2.01538 21.9668 1.57402 21.6127 1.21945C21.2586 0.864883 20.8175 0.609541 20.3337 0.47898C18.5528 9.71895e-08 11.414 0 11.414 0C11.414 0 4.27515 -9.71895e-08 2.49426 0.476432C2.01024 0.606569 1.56898 0.86177 1.21479 1.2164C0.860602 1.57104 0.605959 2.01262 0.476432 2.49681C-9.71895e-08 4.28025 0 7.99998 0 7.99998C0 7.99998 -9.71895e-08 11.7197 0.476432 13.5006C0.738852 14.484 1.51337 15.2586 2.49426 15.521C4.27515 16 11.414 16 11.414 16C11.414 16 18.5528 16 20.3337 15.521C21.3172 15.2586 22.0891 14.484 22.3515 13.5006C22.828 11.7197 22.828 7.99998 22.828 7.99998C22.828 7.99998 22.828 4.28025 22.3515 2.49936ZM9.14648 11.414V4.58598L15.0573 7.9745L9.14648 11.414Z" fill="url(#paint0_linear)"/>
<defs>
<linearGradient id="paint0_linear" x1="0" y1="7.99998" x2="22.828" y2="7.99998" gradientUnits="userSpaceOnUse">
<stop stop-color="#4CB8C4"/>
<stop offset="1" stop-color="#3CD3AD"/>
</linearGradient>
</defs>
</svg>
